<?xml version="1.0" standalone="no"?>
<!DOCTYPE svg PUBLIC "-//W3C//DTD SVG 20010904//EN"
 "http://www.w3.org/TR/2001/REC-SVG-20010904/DTD/svg10.dtd">
<svg version="1.0" xmlns="http://www.w3.org/2000/svg"
 width="300.000000pt" height="300.000000pt" viewBox="0 0 300.000000 300.000000"
 preserveAspectRatio="xMidYMid meet">
<metadata>
Created by potrace 1.10, written by Peter Selinger 2001-2011
</metadata>
<g transform="translate(0.000000,300.000000) scale(0.100000,-0.100000)"
fill="#000000" stroke="none">
<path d="M1112 2033 c-75 -36 -103 -133 -62 -214 13 -26 79 -100 164 -184 78
-77 151 -157 162 -179 l19 -38 -25 -17 c-89 -59 -148 -147 -157 -236 l-6 -55
-61 0 c-130 1 -224 84 -241 216 -17 127 60 243 186 279 l54 15 -57 -4 c-143
-11 -237 -105 -238 -237 0 -165 129 -289 300 -289 l60 0 0 -32 c0 -88 100
-208 208 -248 126 -48 246 -47 542 6 190 34 432 43 538 20 83 -17 176 -57 209
-88 13 -12 26 -18 30 -14 13 12 -68 74 -152 116 -165 82 -246 79 -712 -27
-164 -37 -340 -38 -427 -4 -107 43 -196 152 -196 241 0 33 4 36 55 59 31 13
67 38 81 55 l27 31 -5 -74 c-3 -60 -7 -75 -26 -89 -21 -16 -18 -17 68 -17 63
0 86 3 77 10 -32 23 -37 55 -37 218 0 162 0 165 23 171 65 17 178 -9 255 -60
l52 -34 0 -114 c0 -116 -9 -161 -36 -180 -11 -8 9 -11 76 -11 87 0 89 1 67 17
-22 17 -22 20 -25 309 -3 301 1 343 36 352 10 3 -25 5 -77 6 l-93 1 23 -19
c23 -19 24 -25 27 -180 2 -89 1 -161 -3 -161 -3 0 -23 13 -43 29 -56 43 -123
64 -208 65 l-76 1 4 113 c3 106 5 115 27 133 l23 19 -90 0 -91 0 24 -25 c20
-19 25 -34 25 -75 l0 -50 -37 41 c-21 23 -75 70 -120 106 -146 114 -194 181
-178 253 12 55 85 90 155 75 41 -9 106 -74 115 -115 11 -48 25 -18 25 53 0 55
-1 57 -22 52 -13 -3 -43 1 -67 10 -56 19 -127 19 -169 -2z m339 -713 c-1 -71
-7 -130 -11 -130 -17 0 -20 36 -8 82 17 67 -1 164 -41 230 -27 43 -29 49 -11
43 11 -4 29 0 42 10 l23 16 5 -60 c3 -33 3 -119 1 -191z m-60 -48 c-6 -21 -21
-54 -34 -73 -21 -32 -80 -79 -98 -79 -14 0 -10 33 12 105 17 54 31 77 72 119
l52 51 3 -42 c2 -23 -2 -59 -7 -81z"/>
<path d="M1318 1868 c7 -7 12 -25 12 -40 0 -15 5 -28 10 -28 6 0 10 13 10 28
0 15 5 33 12 40 9 9 4 12 -22 12 -26 0 -31 -3 -22 -12z"/>
<path d="M1410 1846 c0 -19 5 -38 10 -41 6 -3 10 1 10 9 0 22 27 20 33 -1 3
-10 5 2 5 27 0 25 -2 37 -5 28 -5 -22 -33 -24 -33 -3 0 8 -4 15 -10 15 -5 0
-10 -15 -10 -34z"/>
<path d="M1524 1866 c-11 -29 1 -61 24 -64 12 -2 22 1 22 7 0 6 -7 11 -15 11
-8 0 -15 5 -15 11 0 5 4 8 9 4 5 -3 12 -1 16 5 3 5 -1 10 -9 10 -9 0 -16 4
-16 10 0 5 7 7 15 4 8 -4 15 -1 15 5 0 16 -40 13 -46 -3z"/>
<path d="M1687 1874 c-11 -11 -8 -62 3 -69 6 -3 10 2 10 12 1 17 1 17 14 1 19
-26 23 -22 22 20 -1 29 -5 38 -21 40 -12 2 -24 0 -28 -4z"/>
<path d="M1790 1840 c0 -33 3 -40 20 -40 11 0 20 5 20 10 0 6 -7 10 -15 10 -8
0 -15 4 -15 10 0 5 7 7 15 4 8 -4 15 -1 15 5 0 6 -7 11 -15 11 -8 0 -15 4 -15
10 0 5 6 7 14 4 8 -3 17 -1 21 5 4 7 -4 11 -19 11 -24 0 -26 -4 -26 -40z"/>
<path d="M1896 1848 c-20 -48 -20 -51 4 -36 17 11 22 10 30 -2 19 -31 20 0 1
37 l-19 38 -16 -37z"/>
<path d="M1990 1840 c0 -36 3 -40 25 -40 14 0 25 5 25 10 0 6 -7 10 -15 10
-10 0 -15 10 -15 30 0 17 -4 30 -10 30 -5 0 -10 -18 -10 -40z"/>
<path d="M2152 1848 c17 -52 26 -55 43 -15 18 43 18 47 5 47 -5 0 -10 -9 -10
-19 0 -30 -17 -34 -24 -6 -4 14 -11 25 -16 25 -5 0 -4 -14 2 -32z"/>
<path d="M2260 1865 c-26 -31 13 -82 44 -56 19 16 21 42 4 59 -16 16 -33 15
-48 -3z m40 -26 c0 -10 -7 -19 -15 -19 -15 0 -21 31 -9 43 11 10 24 -3 24 -24z"/>
<path d="M2370 1869 c0 -6 7 -8 16 -5 15 6 15 4 0 -18 -22 -35 -20 -46 9 -46
14 0 25 5 25 10 0 6 -7 10 -16 10 -15 0 -15 2 0 25 21 32 20 35 -9 35 -14 0
-25 -5 -25 -11z"/>
</g>
</svg>
